# Blender v2.70 (sub 0) OBJ File: ''
# www.blender.org
v -0.999999 -0.000000 1.000000
v -1.000000 0.000000 -1.000000
v -0.980784 -0.195090 1.000000
v -0.980786 -0.195090 -1.000000
v -0.923879 -0.382684 1.000000
v -0.923880 -0.382683 -1.000000
v -0.831469 -0.555570 1.000000
v -0.831470 -0.555570 -1.000000
v -0.707106 -0.707107 1.000000
v -0.707107 -0.707107 -1.000000
v -0.555569 -0.831470 1.000000
v -0.555571 -0.831470 -1.000000
v -0.382683 -0.923880 1.000000
v -0.382684 -0.923879 -1.000000
v -0.195089 -0.980785 1.000000
v -0.195091 -0.980785 -1.000000
v 0.000001 -1.000000 1.000000
v -0.000000 -1.000000 -1.000000
v 0.195091 -0.980785 1.000000
v 0.195090 -0.980785 -1.000001
v 0.382684 -0.923880 0.999999
v 0.382683 -0.923879 -1.000001
v 0.555571 -0.831470 0.999999
v 0.555570 -0.831470 -1.000001
v 0.707108 -0.707107 0.999999
v 0.707106 -0.707107 -1.000001
v 0.831471 -0.555570 0.999999
v 0.831469 -0.555570 -1.000001
v 0.923881 -0.382683 0.999999
v 0.923879 -0.382683 -1.000001
v 0.980786 -0.195090 0.999999
v 0.980785 -0.195090 -1.000001
v 1.000001 0.000000 0.999999
v 1.000000 0.000000 -1.000001
v 0.980786 0.195091 0.999999
v 0.980785 0.195091 -1.000001
v 0.923880 0.382684 0.999999
v 0.923879 0.382684 -1.000001
v 0.831470 0.555571 0.999999
v 0.831469 0.555571 -1.000001
v 0.707107 0.707107 0.999999
v 0.707106 0.707107 -1.000001
v 0.555571 0.831470 0.999999
v 0.555569 0.831470 -1.000001
v 0.382684 0.923880 1.000000
v 0.382682 0.923880 -1.000000
v 0.195090 0.980785 1.000000
v 0.195089 0.980785 -1.000000
v 0.000000 1.000000 1.000000
v -0.000001 1.000000 -1.000000
v -0.195090 0.980785 1.000000
v -0.195092 0.980785 -1.000000
v -0.382684 0.923879 1.000000
v -0.382685 0.923879 -1.000000
v -0.555570 0.831469 1.000000
v -0.555572 0.831469 -1.000000
v -0.707107 0.707106 1.000000
v -0.707108 0.707106 -1.000000
v -0.831469 0.555569 1.000000
v -0.831471 0.555569 -1.000000
v -0.923879 0.382682 1.000000
v -0.923880 0.382682 -1.000000
v -0.980785 0.195089 1.000000
v -0.980786 0.195089 -1.000000
vn -0.995185 -0.098017 0.000001
vn -0.956940 -0.290285 0.000001
vn -0.881921 -0.471396 0.000001
vn -0.773011 -0.634393 0.000000
vn -0.634393 -0.773010 0.000000
vn -0.471396 -0.881922 0.000000
vn -0.290285 -0.956940 0.000000
vn -0.098017 -0.995185 0.000000
vn 0.098017 -0.995185 -0.000000
vn 0.290285 -0.956940 -0.000000
vn 0.471396 -0.881922 -0.000000
vn 0.634393 -0.773010 -0.000001
vn 0.773011 -0.634393 -0.000001
vn 0.881921 -0.471397 -0.000001
vn 0.956941 -0.290284 -0.000001
vn 0.995185 -0.098018 -0.000001
vn 0.995185 0.098018 -0.000001
vn 0.956940 0.290286 -0.000001
vn 0.881921 0.471398 -0.000001
vn 0.773010 0.634393 -0.000000
vn 0.634393 0.773011 -0.000000
vn 0.471396 0.881922 -0.000000
vn 0.290284 0.956941 -0.000000
vn 0.098016 0.995185 0.000000
vn -0.098018 0.995185 0.000000
vn -0.290286 0.956940 0.000000
vn -0.471398 0.881921 0.000000
vn -0.634394 0.773010 0.000000
vn -0.773012 0.634392 0.000001
vn -0.881922 0.471396 0.000001
vn -0.995185 0.098017 0.000001
vn -0.956941 0.290283 0.000001
vn -0.881921 -0.471397 0.000001
vn -0.773010 -0.634393 0.000000
vn -0.471396 -0.881921 0.000000
vn 0.471397 -0.881921 -0.000000
vn 0.634393 -0.773010 -0.000000
vn 0.956940 -0.290285 -0.000001
vn 0.995185 -0.098017 -0.000001
vn 0.956940 0.290285 -0.000001
vn 0.881922 0.471396 -0.000001
vn 0.773010 0.634394 -0.000000
vn 0.634392 0.773011 -0.000000
vn 0.471396 0.881921 -0.000000
vn -0.773011 0.634393 0.000001
vn -0.881922 0.471395 0.000001
vn -0.995185 0.098016 0.000001
s off
f 2//1 4//1 3//1
f 4//2 6//2 5//2
f 6//3 8//3 7//3
f 8//4 10//4 9//4
f 9//5 10//5 12//5
f 12//6 14//6 13//6
f 14//7 16//7 15//7
f 15//8 16//8 18//8
f 17//9 18//9 20//9
f 19//10 20//10 22//10
f 21//11 22//11 24//11
f 24//12 26//12 25//12
f 26//13 28//13 27//13
f 28//14 30//14 29//14
f 30//15 32//15 31//15
f 32//16 34//16 33//16
f 34//17 36//17 35//17
f 36//18 38//18 37//18
f 38//19 40//19 39//19
f 40//20 42//20 41//20
f 42//21 44//21 43//21
f 44//22 46//22 45//22
f 46//23 48//23 47//23
f 48//24 50//24 49//24
f 50//25 52//25 51//25
f 52//26 54//26 53//26
f 54//27 56//27 55//27
f 56//28 58//28 57//28
f 57//29 58//29 60//29
f 60//30 62//30 61//30
f 64//31 2//31 1//31
f 61//32 62//32 64//32
f 1//1 2//1 3//1
f 3//2 4//2 5//2
f 5//33 6//33 7//33
f 7//34 8//34 9//34
f 11//5 9//5 12//5
f 11//35 12//35 13//35
f 13//7 14//7 15//7
f 17//8 15//8 18//8
f 19//9 17//9 20//9
f 21//10 19//10 22//10
f 23//36 21//36 24//36
f 23//37 24//37 25//37
f 25//13 26//13 27//13
f 27//14 28//14 29//14
f 29//38 30//38 31//38
f 31//39 32//39 33//39
f 33//17 34//17 35//17
f 35//40 36//40 37//40
f 37//41 38//41 39//41
f 39//42 40//42 41//42
f 41//43 42//43 43//43
f 43//44 44//44 45//44
f 45//23 46//23 47//23
f 47//24 48//24 49//24
f 49//25 50//25 51//25
f 51//26 52//26 53//26
f 53//27 54//27 55//27
f 55//28 56//28 57//28
f 59//45 57//45 60//45
f 59//46 60//46 61//46
f 63//47 64//47 1//47
f 63//32 61//32 64//32
